<?xml version="1.0" standalone="no"?>
<!DOCTYPE svg PUBLIC "-//W3C//DTD SVG 20010904//EN"
 "http://www.w3.org/TR/2001/REC-SVG-20010904/DTD/svg10.dtd">
<svg version="1.0" xmlns="http://www.w3.org/2000/svg"
 width="840.000000pt" height="842.000000pt" viewBox="0 0 840.000000 842.000000"
 preserveAspectRatio="xMidYMid meet">

<g transform="translate(0.000000,842.000000) scale(0.100000,-0.100000)"
fill="#000000" stroke="none">
<path d="M725 8005 c-201 -37 -367 -160 -456 -340 -74 -151 -69 140 -69 -3465
0 -3612 -6 -3313 71 -3469 75 -152 216 -269 389 -323 l75 -23 3465 0 3465 0
75 23 c173 54 314 171 389 323 77 156 71 -143 71 3469 0 3604 5 3314 -69 3465
-92 186 -266 311 -481 345 -105 16 -6834 12 -6925 -5z m1735 -2020 c0 -334 -3
-495 -10 -495 -6 0 -68 13 -138 30 -232 54 -1001 230 -1006 230 -3 0 -6 164
-6 365 l0 365 580 0 580 0 0 -495z m3540 -874 c285 -54 537 -171 699 -325 205
-196 312 -439 373 -848 21 -140 22 -175 25 -1530 l4 -1388 -580 0 -580 0 -4
1258 c-3 1106 -6 1268 -20 1347 -67 371 -200 547 -463 612 -96 23 -330 23
-439 -1 -251 -55 -416 -185 -495 -389 -17 -43 -40 -128 -52 -190 -21 -110 -22
-130 -25 -1374 l-4 -1263 -574 0 -575 0 0 1985 0 1985 500 0 500 0 0 -162 c1
-104 5 -173 13 -191 l12 -28 60 47 c129 100 288 197 436 265 263 122 389 165
584 200 140 26 441 21 605 -10z m-3540 -2196 l0 -1895 -580 0 -580 0 0 1895 0
1895 580 0 580 0 0 -1895z"/>
</g>
</svg>
