<?xml version="1.0" standalone="no"?>
<!DOCTYPE svg PUBLIC "-//W3C//DTD SVG 20010904//EN"
 "http://www.w3.org/TR/2001/REC-SVG-20010904/DTD/svg10.dtd">
<svg version="1.0" xmlns="http://www.w3.org/2000/svg"
 width="600.000000pt" height="600.000000pt" viewBox="0 0 600.000000 600.000000"
 preserveAspectRatio="xMidYMid meet">

<g transform="translate(0.000000,600.000000) scale(0.100000,-0.100000)"
fill="#000000" stroke="none">
<path d="M2680 5630 c-458 -35 -874 -194 -1204 -461 -177 -142 -356 -347 -474
-541 -35 -56 -77 -126 -95 -155 -18 -28 -58 -82 -90 -120 -175 -204 -321 -483
-403 -766 -159 -552 -112 -1149 132 -1674 363 -783 1184 -1387 2064 -1518 144
-22 495 -31 643 -16 1019 100 1882 806 2182 1786 18 60 50 146 70 189 118 253
185 591 171 863 -27 525 -262 1040 -682 1490 -459 494 -1121 831 -1778 908
-165 19 -397 25 -536 15z m595 -84 c350 -57 677 -169 963 -330 56 -31 102 -59
102 -60 0 -2 -56 16 -124 40 -257 89 -464 119 -821 118 -693 -3 -1263 -115
-1770 -349 -44 -20 -84 -40 -89 -43 -5 -3 -6 1 -1 8 4 7 62 48 129 92 257 169
570 291 891 349 55 9 88 18 74 18 -44 2 -238 -37 -369 -73 -314 -86 -600 -235
-850 -443 -52 -43 -126 -101 -165 -128 -38 -26 -93 -68 -122 -92 -28 -23 -54
-43 -58 -43 -4 0 15 30 41 68 361 510 859 806 1479 881 123 15 571 6 690 -13z
m509 -311 c660 -87 1145 -433 1432 -1021 184 -376 272 -834 261 -1354 -6 -302
-35 -490 -96 -615 -89 -184 -268 -421 -462 -611 -456 -444 -1051 -723 -1703
-799 -177 -20 -499 -21 -668 0 -512 60 -930 262 -1263 607 -328 339 -530 777
-606 1308 -30 210 -32 518 -6 670 73 411 212 758 427 1060 102 142 165 208
265 272 375 243 886 408 1470 473 325 36 719 41 949 10z m-2712 -722 c-58 -75
-143 -213 -207 -339 -36 -70 -65 -125 -65 -121 0 16 70 194 108 277 32 68 54
98 110 153 78 75 99 86 54 30z m4328 -498 c201 -410 262 -826 180 -1225 -44
-213 -45 -209 -45 132 0 247 -4 341 -18 448 -39 283 -96 512 -183 725 -60 147
-59 146 -29 100 14 -22 57 -103 95 -180z m-4646 100 c-78 -222 -134 -490 -156
-750 -16 -201 -16 -717 1 -830 50 -335 132 -609 261 -864 95 -191 231 -391
367 -541 87 -96 18 -42 -116 92 -520 518 -776 1183 -722 1872 27 333 103 611
241 874 44 83 151 254 157 249 1 -1 -14 -47 -33 -102z m35 -2025 c13 -30 47
-103 77 -162 311 -619 844 -1013 1534 -1134 626 -110 1321 5 1900 313 353 188
676 454 894 738 38 50 73 94 77 98 4 5 10 3 14 -4 6 -8 4 -10 -5 -4 -10 6 -12
4 -7 -8 3 -9 2 -17 -2 -19 -5 -2 -30 -46 -56 -98 -149 -299 -375 -584 -640
-807 -366 -308 -852 -515 -1324 -564 -142 -15 -489 -6 -626 15 -446 71 -809
230 -1127 495 -371 311 -664 791 -782 1285 -40 167 -39 178 7 41 24 -71 54
-155 66 -185z"/>
<path d="M2678 5393 c12 -2 30 -2 40 0 9 3 -1 5 -23 4 -22 0 -30 -2 -17 -4z"/>
</g>
</svg>
